<svg xmlns="http://www.w3.org/2000/svg" viewBox="0 0 51.678 44.043"><defs><style>.a,.b,.c,.d,.e,.g{fill:none;}.a,.b{stroke:#010101;}.a{stroke-width:1.4px;}.c,.d,.e{stroke:#1f2122;}.c{stroke-linecap:round;stroke-width:1.3px;stroke-dasharray:0 3;}.e{stroke-width:0.8px;}.f{stroke:none;}</style></defs><g transform="translate(-277 -383.498)"><g class="a" transform="translate(292.201 386.343)"><ellipse class="f" cx="11.4" cy="4.343" rx="11.4" ry="4.343"/><ellipse class="g" cx="11.4" cy="4.343" rx="10.7" ry="3.643"/></g><g transform="translate(292.87 390.655)"><path class="a" d="M10328.754,3547.723c-7.788.019-10.756-2.853-10.8-3.977s0-26.447,0-26.447" transform="translate(-10317.928 -3517.178)"/><path class="a" d="M10317.77,3547.733c7.789.019,10.8-2.688,10.849-3.812s0-26.734,0-26.734" transform="translate(-10307.225 -3517.188)"/></g><g transform="translate(292.698 397.314)"><path class="b" d="M10328.768,3546.178c-7.788.019-10.928-2.688-10.977-3.812s0-7.046,0-7.046" transform="translate(-10317.77 -3535.32)"/><path class="b" d="M10317.77,3546.178c7.789.019,10.929-2.688,10.978-3.812s0-7.046,0-7.046" transform="translate(-10307.053 -3535.32)"/></g><g transform="translate(292.698 403.828)"><path class="b" d="M10328.768,3546.178c-7.788.019-10.928-2.688-10.977-3.812s0-7.046,0-7.046" transform="translate(-10317.77 -3535.32)"/><path class="b" d="M10317.77,3546.178c7.789.019,10.929-2.688,10.978-3.812s0-7.046,0-7.046" transform="translate(-10307.053 -3535.32)"/></g><g transform="translate(292.698 390.799)"><path class="b" d="M10328.768,3546.178c-7.788.019-10.928-2.688-10.977-3.812s0-7.046,0-7.046" transform="translate(-10317.77 -3535.32)"/><path class="b" d="M10317.77,3546.178c7.789.019,10.929-2.688,10.978-3.812s0-7.046,0-7.046" transform="translate(-10307.053 -3535.32)"/></g><path class="c" d="M10306.173,3545.988h10.857" transform="translate(-10007.458 -3148.674)"/><path class="c" d="M10306.173,3545.988h10.857" transform="translate(-10007.458 -3134.559)"/><path class="c" d="M10306.173,3545.988h10.857" transform="translate(-10007.458 -3141.074)"/><path class="c" d="M10306.173,3545.988h10.857" transform="translate(-10007.458 -3128.045)"/><path class="c" d="M10306.173,3545.988h10.857" transform="translate(-10007.458 -3119.359)"/><g transform="translate(277 387.429)"><g class="d"><rect class="f" width="9.859" height="8.686"/><rect class="g" x="0.5" y="0.5" width="8.859" height="7.686"/></g><line class="e" x2="5.429" transform="translate(2.215 3.257)"/><line class="e" x2="4.343" transform="translate(2.298 5.429)"/></g><g transform="translate(319.345 383.498)"><g class="d"><rect class="f" width="9.333" height="7.188"/><rect class="g" x="0.5" y="0.5" width="8.333" height="6.188"/></g><line class="e" x2="5.429" transform="translate(1.952 2.696)"/><line class="e" x2="4.343" transform="translate(2.079 4.493)"/></g><g transform="translate(277 420.002)"><g class="d" transform="translate(0.958)"><rect class="f" width="9.899" height="7.539"/><rect class="g" x="0.5" y="0.5" width="8.899" height="6.539"/></g><line class="e" x2="5.429" transform="translate(3.193 2.827)"/><line class="e" x2="4.343" transform="translate(3.273 4.712)"/></g><g transform="translate(319.345 414.573)"><g class="d" transform="translate(0 0)"><rect class="f" width="9.333" height="7.39"/><rect class="g" x="0.5" y="0.5" width="8.333" height="6.39"/></g><line class="e" x2="5.429" transform="translate(1.952 2.771)"/><line class="e" x2="4.343" transform="translate(2.079 4.619)"/></g><path class="d" d="M10345.5,3561v5.83h10.218" transform="translate(-10063.07 -3164.885)"/><path class="d" d="M0,0V5.83H10.315" transform="translate(324.773 414.974) rotate(180)"/><path class="d" d="M0,0V9.9H5.18" transform="translate(292.87 414.974) rotate(90)"/><path class="d" d="M0,0V10H5.18" transform="translate(313.916 395.181) rotate(-90)"/></g></svg>