<svg xmlns:dc="http://purl.org/dc/elements/1.1/" xmlns:cc="http://creativecommons.org/ns#" xmlns:rdf="http://www.w3.org/1999/02/22-rdf-syntax-ns#" xmlns:svg="http://www.w3.org/2000/svg" xmlns="http://www.w3.org/2000/svg" xmlns:sodipodi="http://sodipodi.sourceforge.net/DTD/sodipodi-0.dtd" xmlns:inkscape="http://www.inkscape.org/namespaces/inkscape" version="1.1" x="0px" y="0px" viewBox="0 0 100 125"><g transform="translate(0,-952.36218)"><g transform="translate(7.9998843,957.36399)"><path d="M 41.740157,0 C 18.673228,0 0,19.098425 0,42.555118 1.0629921,71.07874 21.082677,85.074803 41.740157,85.145669 c 7.299213,0 14.173228,-1.984252 20.161417,-5.350393 4.889764,2.303149 9.637795,6.307086 13.818898,8.716535 2.232283,1.240158 5.102362,2.338583 7.086614,0.531496 1.913386,-2.161417 1.133858,-4.889764 0.354331,-7.086614 C 81.106299,75.862205 78.059054,71.53937 76.535432,66.011811 80.574802,58.216535 83.409448,49.818898 83.480314,42.590551 83.09055,16.051181 62.07874,0.03543307 41.740157,0 z m 0,5.988189 c 19.73622,0 35.716535,16.334646 35.751968,36.602362 0,7.688977 -2.338582,14.811024 -6.307086,20.692914 -1.098425,1.594488 -0.708662,2.799212 -0.531496,3.791338 0.81496,3.614173 2.622047,7.192914 4.003937,10.240158 0.779527,1.73622 1.417322,3.188976 2.019685,4.641732 -1.240158,-0.779528 -2.409449,-1.488189 -3.826772,-2.444882 -3.153543,-1.948819 -5.917323,-4.358268 -9.141732,-5.527559 -0.956693,-0.318898 -2.196851,-0.885827 -4.003937,0.177165 -5.279528,3.153544 -11.409449,4.96063 -17.964567,4.96063 -19.73622,0 -35.7519681,-16.299212 -35.7519681,-36.566929 0,-20.267716 16.0157481,-36.566929 35.7519681,-36.566929 z m -10.488189,9.035433 c -1.098425,0.212598 -1.73622,0.566929 -2.480315,1.346457 -0.744094,1.27559 -0.389763,2.551181 -0.283464,3.791338 0.212598,1.771654 -0.354331,2.480315 -1.204725,4.074803 -0.956693,1.665355 -0.850393,3.578741 -0.602362,5.279528 0.389764,1.452756 1.133858,2.551181 1.877953,3.933071 0.637795,1.523622 2.692913,2.232283 4.145669,1.452756 1.452756,-0.779528 2.019685,-2.870079 1.133858,-4.251969 l -1.240157,-2.338582 c -0.318898,-1.38189 0.566929,-2.338583 1.240157,-3.614174 0.779528,-1.559055 0.673229,-3.224409 0.602363,-4.818897 0,-1.594488 -0.07087,-2.622047 -0.885827,-3.791339 -0.602362,-0.708661 -1.523622,-0.850394 -2.30315,-1.062992 z m 10.027559,0 c -1.133858,0.212598 -1.771653,0.566929 -2.515748,1.346457 -0.744094,1.27559 -0.354331,2.551181 -0.283464,3.791338 0.212598,1.771654 -0.318898,2.480315 -1.169292,4.074803 -0.992126,1.665355 -0.885826,3.578741 -0.637795,5.279528 0.389764,1.452756 1.133858,2.551181 1.877953,3.933071 0.673228,1.523622 2.692913,2.232283 4.145669,1.452756 1.452756,-0.779528 2.019685,-2.870079 1.133858,-4.251969 l -1.204724,-2.338582 c -0.354331,-1.38189 0.566929,-2.338583 1.204724,-3.614174 0.779528,-1.559055 0.673229,-3.224409 0.637796,-4.818897 -0.03543,-1.594488 -0.1063,-2.622047 -0.92126,-3.791339 -0.602362,-0.708661 -1.523622,-0.850394 -2.267717,-1.062992 z m 9.992126,0 c -1.133858,0.212598 -1.73622,0.566929 -2.515748,1.346457 -0.708661,1.27559 -0.354331,2.551181 -0.248031,3.791338 0.212598,1.771654 -0.354331,2.480315 -1.204725,4.074803 -0.956693,1.665355 -0.885827,3.578741 -0.637795,5.279528 0.389764,1.452756 1.133858,2.551181 1.877953,3.933071 0.673228,1.523622 2.728346,2.232283 4.181102,1.452756 1.452756,-0.779528 1.984252,-2.870079 1.098425,-4.251969 L 52.61811,28.311024 c -0.354331,-1.38189 0.566929,-2.374016 1.204724,-3.614174 0.779528,-1.559055 0.673229,-3.224409 0.637795,-4.818897 C 54.425196,18.283465 54.35433,17.255906 53.53937,16.086614 52.97244,15.377953 52.015748,15.23622 51.271653,15.023622 z M 20.161417,36.035433 c -1.452756,0.177165 -2.692913,1.523622 -2.692913,3.011811 0,12.685039 10.346456,22.996063 23.031496,22.996063 5.385826,0 10.381889,-1.877953 14.31496,-5.031496 5.492126,-0.637795 10.913386,-2.267717 14.385827,-6.200787 2.763779,-3.472441 2.515748,-9 -0.885827,-11.338583 -1.488189,-0.956693 -3.11811,-1.275591 -4.96063,-1.38189 -0.425197,-1.204724 -1.629921,-2.055118 -2.870079,-2.055118 l -40.322834,0 z m 3.614173,6.023622 33.413386,0 C 55.771653,50.031496 48.897637,56.055118 40.5,56.055118 c -8.397638,0 -15.307087,-6.023622 -16.72441,-13.996063 z m 39.153543,2.055118 c 1.275591,0.106299 1.984252,0.318898 2.090551,0.389764 0.46063,0.92126 0.177166,1.488189 -0.35433,2.374016 -1.204725,1.169291 -2.30315,1.842519 -3.649606,2.480315 0.850393,-1.629922 1.488188,-3.401575 1.913385,-5.244095 z M 20.19685,63.070866 c -1.559055,0.07087 -2.940945,1.559055 -2.870078,3.11811 0.07087,1.594489 1.594488,2.940945 3.153543,2.870079 l 40.003936,0 c 1.594489,0.03543 3.047245,-1.417323 3.047245,-3.011811 0,-1.559055 -1.452756,-3.011811 -3.047245,-2.976378 l -40.287401,0 z" style="" fill="#000000" fill-opacity="1" fill-rule="nonzero" stroke="none"/></g></g><text x="0" y="115" fill="#000000" font-size="5px" font-weight="bold" font-family="'Helvetica Neue', Helvetica, Arial-Unicode, Arial, Sans-serif">Created by sandra</text><text x="0" y="120" fill="#000000" font-size="5px" font-weight="bold" font-family="'Helvetica Neue', Helvetica, Arial-Unicode, Arial, Sans-serif">from the Noun Project</text></svg>