<svg xmlns:dc="http://purl.org/dc/elements/1.1/" xmlns:cc="http://creativecommons.org/ns#" xmlns:rdf="http://www.w3.org/1999/02/22-rdf-syntax-ns#" xmlns:svg="http://www.w3.org/2000/svg" xmlns="http://www.w3.org/2000/svg" xmlns:sodipodi="http://sodipodi.sourceforge.net/DTD/sodipodi-0.dtd" xmlns:inkscape="http://www.inkscape.org/namespaces/inkscape" version="1.1" x="0px" y="0px" viewBox="0 0 100 125"><g transform="translate(0,-952.36218)"><g transform="translate(9.0038014,958.35248)"><path d="M 40.712598,0 C 18.212598,0 0,18.673228 0,41.562992 c 0.56692912,23.492125 18.566929,41.492125 40.712598,41.562991 7.299212,0 14.173228,-1.984252 20.09055,-5.421259 3.011811,1.204724 5.846457,3.366141 8.149606,4.925196 2.161418,1.488189 4.358268,2.976378 6.236221,4.003937 0.92126,0.531496 1.73622,0.92126 2.622047,1.204725 1.240157,0.425197 2.30315,0.03543 3.259842,-0.496063 1.098426,-1.027559 0.956693,-2.196851 0.850394,-3.153544 -0.106299,-0.921259 -0.425197,-1.877952 -0.779527,-2.940944 -0.744095,-2.090552 -1.84252,-4.535433 -2.976378,-6.980315 C 76.712597,70.901574 75.224408,67.748031 74.515747,64.73622 78.874014,58.110236 81.425195,50.137795 81.425195,41.598425 81.531494,18.035433 63.566928,0.03543307 40.712598,0 z m 0,4.003937 c 20.267716,0 36.70866,16.795275 36.70866,37.594488 0,7.901574 -2.409449,15.200787 -6.484252,21.259842 -0.779527,1.169291 -0.531496,2.125984 -0.35433,3.047244 0.81496,3.507874 2.551181,7.015748 3.933071,10.027559 1.062992,2.480315 2.409448,5.031496 3.082677,7.440945 -2.232284,-1.133858 -4.535433,-2.799213 -6.377953,-4.03937 -3.047244,-1.877953 -5.704724,-4.216536 -8.893701,-5.350394 -0.850393,-0.318897 -1.842519,-0.708661 -3.11811,0.07087 -5.42126,3.22441 -11.763779,5.102362 -18.496062,5.102362 C 20.551181,79.05118 4.570866,63.070865 4.0039369,41.421259 4.0748031,20.692913 20.480315,4.003937 40.712598,4.003937 z m -10.452756,13.03937 c -0.779528,0.141732 -1.169291,0.354331 -1.665354,0.885827 -0.531496,1.062992 -0.212599,2.161417 -0.177166,3.224409 0.46063,2.267717 -1.133858,4.003937 -1.807086,5.88189 -0.248032,1.133858 -0.1063,2.267716 0,3.295275 0.389763,1.311024 1.098425,2.374016 1.807086,3.649607 0.46063,0.992126 1.771654,1.417322 2.728347,0.921259 0.921259,-0.531496 1.311023,-1.842519 0.779527,-2.763779 l -1.240157,-2.374016 c -0.283465,-0.602362 -0.212599,-1.240157 -0.177166,-1.877953 1.594489,-2.267716 1.984252,-4.358267 1.913386,-6.909448 0.03543,-1.346457 -0.07087,-2.232284 -0.637795,-3.22441 -0.425197,-0.496063 -1.027559,-0.566929 -1.523622,-0.708661 z m 9.992126,0 c -0.744095,0.141732 -1.169292,0.354331 -1.665355,0.885827 -0.531496,1.062992 -0.212598,2.161417 -0.141732,3.224409 0.425197,2.267717 -1.169291,4.003937 -1.84252,5.88189 -0.248031,1.133858 -0.106299,2.267716 0,3.295275 0.389764,1.311024 1.098426,2.374016 1.807087,3.649607 0.46063,0.992126 1.771654,1.417322 2.728346,0.921259 0.956693,-0.531496 1.311024,-1.842519 0.779528,-2.763779 -0.46063,-0.885827 -0.956693,-1.807087 -1.38189,-2.65748 -0.177165,-0.744095 0,-1.275591 0.141733,-1.877953 1.523622,-2.19685 1.807086,-4.251969 1.73622,-6.625984 0.03543,-1.346457 -0.07087,-2.232284 -0.637795,-3.22441 -0.425197,-0.496063 -1.027559,-0.566929 -1.523622,-0.708661 z m 9.992125,0 c -0.744094,0.141732 -1.169291,0.354331 -1.665354,0.885827 -0.531496,0.992126 -0.212598,2.267716 -0.141732,3.224409 0.248031,1.736221 -0.566929,3.224409 -1.275591,4.570866 -0.602362,0.885827 -0.637795,1.984252 -0.708661,2.940945 0.03543,2.090551 0.992126,3.543307 1.948819,5.314961 0.46063,0.992126 1.771653,1.417322 2.728346,0.921259 0.956693,-0.531496 1.346457,-1.842519 0.779528,-2.763779 L 50.66929,29.763779 c -0.318897,-0.81496 -0.177165,-1.452756 0,-2.161417 1.452756,-2.055118 1.807087,-4.429134 1.771654,-6.625984 0,-1.346457 -0.106299,-2.232284 -0.673229,-3.22441 -0.389763,-0.496063 -1.027559,-0.566929 -1.523622,-0.708661 z M 19.27559,37.062992 c -0.992126,0.106299 -1.807086,1.027559 -1.807086,1.984252 0,12.153543 9.850393,22.03937 22.003936,22.03937 5.314961,0 10.169291,-1.913386 13.996063,-5.06693 3.153543,-0.212598 6.484252,-1.204724 9.283464,-2.763779 1.523622,-0.850394 2.905512,-1.877953 3.968504,-3.082677 2.374016,-3.011811 2.232283,-7.830709 -0.708661,-9.814961 -1.275591,-0.850393 -2.76378,-1.169291 -4.570866,-1.27559 0.106299,-1.027559 -0.992126,-1.984252 -1.984252,-2.019685 -13.287402,0 -27.708661,0 -40.181102,0 z m 41.811023,6.059055 c 1.488189,0.106299 2.374016,0.35433 2.728346,0.566929 0.992126,1.311024 0.885827,2.65748 -0.141732,3.862205 -0.637795,0.744094 -1.629921,1.523622 -2.870079,2.19685 -0.885826,0.496063 -1.877952,0.92126 -2.905511,1.27559 1.523622,-2.338582 2.65748,-5.031496 3.188976,-7.901574 z M 19.27559,63.070865 c -1.062992,0.03543 -1.948819,1.062993 -1.913386,2.090552 0.07087,1.062992 1.062992,1.948818 2.090552,1.913385 l 40.003936,0 c 1.062992,0 2.019685,-0.956692 2.019685,-2.019685 0,-1.027559 -0.956693,-1.984252 -2.019685,-1.984252 l -40.181102,0 z" style="" fill="#000000" fill-opacity="1" fill-rule="nonzero" stroke="none"/></g></g><text x="0" y="115" fill="#000000" font-size="5px" font-weight="bold" font-family="'Helvetica Neue', Helvetica, Arial-Unicode, Arial, Sans-serif">Created by sandra</text><text x="0" y="120" fill="#000000" font-size="5px" font-weight="bold" font-family="'Helvetica Neue', Helvetica, Arial-Unicode, Arial, Sans-serif">from the Noun Project</text></svg>