<svg xmlns:dc="http://purl.org/dc/elements/1.1/" xmlns:cc="http://creativecommons.org/ns#" xmlns:rdf="http://www.w3.org/1999/02/22-rdf-syntax-ns#" xmlns:svg="http://www.w3.org/2000/svg" xmlns="http://www.w3.org/2000/svg" xmlns:sodipodi="http://sodipodi.sourceforge.net/DTD/sodipodi-0.dtd" xmlns:inkscape="http://www.inkscape.org/namespaces/inkscape" version="1.1" x="0px" y="0px" viewBox="0 0 100 100"><g transform="translate(0,-952.36218)">
  <path d="m 49.717614,960.36221 c -21.3839,-10e-4 -38.719099,17.69404 -38.717599,39.53208 0.001,21.83801 17.333699,39.56171 38.717599,39.56331 7.1136,5e-4 13.7713,-1.9567 19.4994,-5.3751 2.3986,-1.4314 17.4654,12.0005 19.4994,10.0939 2.1541,-2.0191 -8.7245,-19.408 -7.0622,-21.8754 4.2876,-6.3645 6.7816,-14.0657 6.781,-22.37546 0,-21.83803 -17.3337,-39.56177 -38.7176,-39.56333 z m -10.4684,15.03157 c 0.663,0.0573 1.0417,0.31952 1.5312,0.68751 0.7004,0.97068 0.5895,2.17973 0.6561,3.21882 0.041,1.48434 0.065,3.18659 -0.5,4.28134 -0.9759,1.64147 -1.7958,2.79574 -1.25,4.53134 l 1.25,2.3438 c 0.5328,0.92741 0.1484,2.26157 -0.7962,2.76317 -0.9447,0.5016 -2.2652,0.0728 -2.7349,-0.88813 -0.649,-1.18223 -1.3735,-2.44232 -1.7812,-3.65633 -0.3436,-1.65656 -0.1085,-3.24382 0.5312,-4.62509 1.0165,-1.52661 1.3144,-2.9092 1.2812,-4.5626 -0.1012,-1.2788 -0.2889,-2.10185 0.1562,-3.21872 0.4802,-0.56027 1.1116,-0.70559 1.6564,-0.87511 z m 9.9997,0 c 0.663,0.0573 1.0417,0.31952 1.5312,0.68751 0.7004,0.97068 0.5895,2.17973 0.6561,3.21882 0.041,1.48434 0.065,3.18659 -0.5,4.28134 -0.9759,1.64147 -1.7958,2.79574 -1.2499,4.53134 l 1.2499,2.3438 c 0.5329,0.92741 0.1484,2.26157 -0.7962,2.76317 -0.9447,0.5016 -2.2652,0.0728 -2.7349,-0.88813 -0.649,-1.18223 -1.3735,-2.44232 -1.7812,-3.65633 -0.3436,-1.65656 -0.1085,-3.24382 0.5312,-4.62509 1.0165,-1.52661 1.3145,-2.9092 1.2812,-4.5626 -0.1012,-1.2788 -0.2889,-2.10185 0.1562,-3.21872 0.4,-0.60366 1.0762,-0.70263 1.6564,-0.87511 z m 9.9997,0 c 0.663,0.0573 1.0417,0.31952 1.5312,0.68751 0.7004,0.97068 0.5895,2.17973 0.6561,3.21882 0.041,1.48434 0.065,3.18659 -0.5,4.28134 -0.9759,1.64147 -1.7958,2.79574 -1.25,4.53134 l 1.25,2.3438 c 0.5329,0.92741 0.1484,2.26157 -0.7962,2.76317 -0.9447,0.5016 -2.2652,0.0728 -2.7349,-0.88813 -0.649,-1.18223 -1.3735,-2.44232 -1.7812,-3.65633 -0.3436,-1.65656 -0.1084,-3.24382 0.5312,-4.62509 1.0165,-1.52661 1.3144,-2.9092 1.2812,-4.5626 -0.1012,-1.2788 -0.2889,-2.10185 0.1562,-3.21872 0.4,-0.60366 1.0762,-0.70263 1.6564,-0.87511 z m -30.9679,20.00042 c 13.9832,-1.6e-4 25.8559,0 40.1863,0 1.0472,4e-5 1.9999,0.95283 2,2.00004 1.6083,0.27294 3.3709,0.53121 4.5624,1.28122 3.0072,2.82754 3.1492,6.90894 0.6874,9.81264 -3.4521,3.5485 -8.7294,5.533 -13.2496,5.8439 -3.8095,3.1584 -8.6787,5.0626 -13.9996,5.0626 -12.1262,0 -21.9993,-9.8735 -21.9993,-22.00041 0.125,-1.01279 0.9038,-1.88541 1.8124,-1.99999 z m 41.8113,6.0626 c -0.5402,2.8677 -1.6478,5.5451 -3.1874,7.9064 2.1193,-0.8172 4.3008,-1.7904 5.7811,-3.4688 1.1335,-1.2866 0.8995,-2.7398 0.1562,-3.8751 -0.3546,-0.2298 -1.2442,-0.4597 -2.7499,-0.5625 z m -41.8113,19.9379 c 13.3788,-10e-5 26.7945,0 40.1863,0 1.0566,-0.015 2.0285,0.9433 2.0285,2.0001 0,1.0567 -0.9719,2.0149 -2.0285,2 l -39.9988,0 c -1.0473,0.049 -2.045,-0.8589 -2.0941,-1.9063 -0.049,-1.0473 0.8593,-2.0449 1.9066,-2.0938 z" style="color:#000000;enable-background:accumulate;" fill="#fff" stroke="none" marker="none" visibility="visible" display="inline" overflow="visible"/>
</g>
</svg>
