<svg xmlns="http://www.w3.org/2000/svg" viewBox="0 0 50.91 50.912"><defs><style>.a,.b,.c,.f{fill:none;}.b,.c{stroke:#000;}.b{stroke-width:0.4px;}.c{stroke-width:0.5px;}.d,.e{stroke:none;}</style></defs><g transform="translate(-10659.045 -3089.337)"><g class="a" transform="translate(10684.5 3089.337) rotate(45)"><path class="d" d="M3,0A3,3,0,1,1,0,3,3,3,0,0,1,3,0Z"/><path class="e" d="M 3 0.4000000953674316 C 1.566359996795654 0.4000000953674316 0.4000000953674316 1.566359996795654 0.4000000953674316 3 C 0.4000000953674316 4.433640003204346 1.566359996795654 5.599999904632568 3 5.599999904632568 C 4.433640003204346 5.599999904632568 5.599999904632568 4.433640003204346 5.599999904632568 3 C 5.599999904632568 1.566359996795654 4.433640003204346 0.4000000953674316 3 0.4000000953674316 M 3 0 C 4.65684986114502 0 6 1.34315013885498 6 3 C 6 4.65684986114502 4.65684986114502 6 3 6 C 1.34315013885498 6 0 4.65684986114502 0 3 C 0 1.34315013885498 1.34315013885498 0 3 0 Z"/></g><circle cx="3" cy="3" r="3" transform="translate(10691.571 3096.408) rotate(45)"/><circle cx="3" cy="3" r="3" transform="translate(10698.643 3103.479) rotate(45)"/><g class="b" transform="translate(10705.713 3110.55) rotate(45)"><circle class="d" cx="3" cy="3" r="3"/><circle class="f" cx="3" cy="3" r="2.8"/></g><circle cx="3" cy="3" r="3" transform="translate(10677.429 3096.408) rotate(45)"/><g class="b" transform="translate(10684.5 3103.479) rotate(45)"><circle class="d" cx="3" cy="3" r="3"/><circle class="f" cx="3" cy="3" r="2.8"/></g><g class="b" transform="translate(10691.571 3110.55) rotate(45)"><circle class="d" cx="3" cy="3" r="3"/><circle class="f" cx="3" cy="3" r="2.8"/></g><g class="b" transform="translate(10698.643 3117.621) rotate(45)"><circle class="d" cx="3" cy="3" r="3"/><circle class="f" cx="3" cy="3" r="2.8"/></g><circle cx="3" cy="3" r="3" transform="translate(10670.357 3103.479) rotate(45)"/><g class="b" transform="translate(10677.429 3110.55) rotate(45)"><circle class="d" cx="3" cy="3" r="3"/><circle class="f" cx="3" cy="3" r="2.8"/></g><circle cx="3" cy="3" r="3" transform="translate(10684.5 3117.621) rotate(45)"/><circle cx="3" cy="3" r="3" transform="translate(10691.571 3124.692) rotate(45)"/><circle cx="3" cy="3" r="3" transform="translate(10663.287 3110.55) rotate(45)"/><circle cx="3" cy="3" r="3" transform="translate(10670.357 3117.621) rotate(45)"/><g class="b" transform="translate(10677.429 3124.692) rotate(45)"><circle class="d" cx="3" cy="3" r="3"/><circle class="f" cx="3" cy="3" r="2.8"/></g><circle cx="3" cy="3" r="3" transform="translate(10684.5 3131.763) rotate(45)"/><line class="c" x1="14" y2="14" transform="translate(10663.5 3100.5)"/><line class="c" x2="7" y2="7" transform="translate(10663.5 3114.5)"/><line class="c" x2="7" y2="7" transform="translate(10691.5 3100.5)"/><path class="c" d="M10421.5,3733.006l7.513-7.159-7.513-7.309" transform="translate(263 -597)"/></g></svg>