<svg xmlns="http://www.w3.org/2000/svg" viewBox="0 0 42.333 40.343"><defs><style>.a,.b,.c,.d,.f{fill:none;}.a,.b,.d{stroke:#010101;}.a{stroke-width:1.4px;}.c{stroke:#1f2122;stroke-linecap:round;stroke-width:1.3px;stroke-dasharray:0 3;}.d{stroke-width:0.8px;}.e{stroke:none;}</style></defs><g transform="translate(-353 -162.656)"><g class="a" transform="translate(363.201 162.656)"><ellipse class="e" cx="11.4" cy="4.343" rx="11.4" ry="4.343"/><ellipse class="f" cx="11.4" cy="4.343" rx="10.7" ry="3.643"/></g><g transform="translate(363.87 158.968)"><path class="a" d="M10328.754,3547.723c-7.788.019-10.756-2.853-10.8-3.977s0-18.965,0-18.965" transform="translate(-10317.928 -3517.178)"/><path class="a" d="M10317.77,3547.733c7.789.019,10.8-2.688,10.849-3.812s0-18.99,0-18.99" transform="translate(-10307.225 -3517.188)"/></g><g transform="translate(363.698 172.626)"><path class="b" d="M10328.768,3546.178c-7.788.019-10.928-2.688-10.977-3.812s0-7.046,0-7.046" transform="translate(-10317.77 -3535.32)"/><path class="b" d="M10317.77,3546.178c7.789.019,10.929-2.688,10.978-3.812s0-7.046,0-7.046" transform="translate(-10307.053 -3535.32)"/></g><g transform="translate(363.698 166.112)"><path class="b" d="M10328.768,3546.178c-7.788.019-10.928-2.688-10.977-3.812s0-7.046,0-7.046" transform="translate(-10317.77 -3535.32)"/><path class="b" d="M10317.77,3546.178c7.789.019,10.929-2.688,10.978-3.812s0-7.046,0-7.046" transform="translate(-10307.053 -3535.32)"/></g><path class="c" d="M10306.173,3545.988h10.857" transform="translate(-9936.458 -3372.362)"/><path class="c" d="M10306.173,3545.988h10.857" transform="translate(-9936.458 -3359.247)"/><path class="c" d="M10306.173,3545.988h10.857" transform="translate(-9936.458 -3365.761)"/><g transform="translate(370 195.811)"><g class="b"><rect class="e" width="9.333" height="7.188"/><rect class="f" x="0.5" y="0.5" width="8.333" height="6.188"/></g><line class="d" x2="5.429" transform="translate(1.952 2.696)"/><line class="d" x2="4.343" transform="translate(2.079 4.493)"/></g><g transform="translate(353 195.811)"><g class="b"><rect class="e" width="9.333" height="7.188"/><rect class="f" x="0.5" y="0.5" width="8.333" height="6.188"/></g><line class="d" x2="5.429" transform="translate(1.952 2.696)"/><line class="d" x2="4.343" transform="translate(2.079 4.493)"/></g><g transform="translate(386 195.885)"><g class="b" transform="translate(0 0)"><rect class="e" width="9.333" height="7.113"/><rect class="f" x="0.5" y="0.5" width="8.333" height="6.113"/></g><line class="d" x2="5.429" transform="translate(1.952 2.667)"/><line class="d" x2="4.343" transform="translate(2.079 4.446)"/></g><path class="b" d="M10345.5,3566.892h6.773" transform="translate(3941.448 -10155.986) rotate(90)"/><path class="b" d="M0,0V3.367H15.713" transform="translate(390.856 196.286) rotate(180)"/><path class="b" d="M0,0V17.284H3.547" transform="translate(375.144 192.919) rotate(90)"/></g></svg>