<svg xmlns="http://www.w3.org/2000/svg" viewBox="0 0 45.182 39.709"><defs><style>.a,.b,.c,.d,.e,.g{fill:none;}.a,.b,.c,.d,.e{stroke:#010101;stroke-linecap:round;}.a,.b,.c{stroke-linejoin:round;}.a{stroke-width:1.2px;}.b{stroke-width:1.6px;}.e{stroke-dasharray:0 3;}.f{stroke:none;}</style></defs><g transform="translate(-10810.7 -3095.855)"><g transform="translate(9982.456 3534.474) rotate(-45)"><g class="a" transform="translate(888 294)"><circle class="f" cx="10.91" cy="10.91" r="10.91"/><circle class="g" cx="10.91" cy="10.91" r="10.31"/></g><path class="a" d="M10949.6,3471v3.927h-1.984v8.772s.793,2.688,1.984,2.688" transform="translate(-10050.693 -3155.413)"/><path class="a" d="M10947.619,3471v3.927h1.984v8.772s-.793,2.688-1.984,2.688" transform="translate(-10048.71 -3155.413)"/></g><path class="b" d="M10903.972,3564.317h-25.7v-30.848h43.582v30.848h0" transform="translate(-66.768 -436.814)"/><g transform="translate(9985.373 2721)"><path class="a" d="M10897,3562.322v3.4s-3.659.052-3.732,0-2.641,3.239-2.641,3.239h10.063" transform="translate(-10052 -3155)"/><path class="a" d="M10894.295,3562.322v3.4s3.635.052,3.707,0,2.625,3.239,2.625,3.239h-10" transform="translate(-10042.938 -3155)"/></g><g class="c" transform="translate(10827 3109)"><rect class="f" width="10" height="11" rx="2"/><rect class="g" x="0.5" y="0.5" width="9" height="10" rx="1.5"/></g><line class="d" y1="10" transform="translate(10839.5 3109.5)"/><line class="e" x2="38" transform="translate(10815.5 3101.5)"/><line class="e" x2="7" transform="translate(10815.5 3106.5)"/><line class="e" x2="7" transform="translate(10815.5 3121.5)"/><line class="e" x2="6" transform="translate(10815.5 3111.5)"/><line class="e" x2="6" transform="translate(10815.5 3116.5)"/><line class="e" x2="4" transform="translate(10848.5 3111.5)"/><line class="e" x2="4" transform="translate(10848.5 3116.5)"/><line class="e" x2="7" transform="translate(10845.5 3106.5)"/></g></svg>