<svg xmlns="http://www.w3.org/2000/svg" viewBox="0 0 58.395 52.292"><defs><style>.a,.b,.c,.d,.e,.f,.g,.i{fill:none;}.a{stroke:#1f2122;stroke-width:1.3px;stroke-dasharray:0 3;}.a,.d,.e{stroke-linecap:round;}.b,.c,.d,.e,.f,.g{stroke:#000;}.b,.f{stroke-width:1.6px;}.c,.d,.f{stroke-linejoin:round;}.c,.d{stroke-width:2px;}.e{stroke-width:1.2px;stroke-dasharray:0 4;}.h{stroke:none;}</style></defs><g transform="translate(-10879.605 -3097)"><path class="a" d="M10306.173,3545.988h10.857" transform="translate(618.542 -436.362)"/><g transform="translate(10102 2909)"><g class="b" transform="translate(790 200)"><circle class="h" cx="4" cy="4" r="4"/><circle class="i" cx="4" cy="4" r="3.2"/></g><path class="c" d="M10835.772,3361.385c-.955-6.333,3.325-11.347,10.368-11.347s10.857,4.434,10.6,11.347c-.258,6.515-10.107,20.8-10.107,20.8S10835.769,3366.319,10835.772,3361.385Z" transform="translate(-10052 -3155)"/></g><path class="d" d="M10832.238,3383.071h-10.006l4.616,19.221h40.445l-4.523-19.221h-19.461" transform="translate(58.373 -254)"/><path class="e" d="M1.652-.4,18.82,11.927" transform="translate(10903.734 3132.092)"/><line class="e" x1="16" y2="6" transform="translate(10896.5 3140.5)"/><line class="e" x2="10" y2="9" transform="translate(10886.5 3135.5)"/><g class="f" transform="translate(10913 3097)"><rect class="h" width="25" height="7"/><rect class="i" x="0.8" y="0.8" width="23.4" height="5.4"/></g><g class="f" transform="translate(10913 3106.25)"><rect class="h" width="25" height="7"/><rect class="i" x="0.8" y="0.8" width="23.4" height="5.4"/></g><g class="f" transform="translate(10913 3115.5)"><rect class="h" width="25" height="7"/><rect class="i" x="0.8" y="0.8" width="23.4" height="5.4"/></g><line class="g" y2="3" transform="translate(10916.5 3103.5)"/><line class="g" y2="3" transform="translate(10935.5 3103.5)"/><line class="g" y2="3" transform="translate(10916.5 3112.5)"/><line class="g" y2="3" transform="translate(10935.5 3112.5)"/></g></svg>