<svg xmlns="http://www.w3.org/2000/svg" viewBox="0 0 50.171 50.17"><defs><style>.a,.b,.c{fill:none;stroke:#010101;}.a{stroke-width:1.6px;}.b{stroke-width:1.5px;}.c{stroke-linecap:round;stroke-dasharray:0.1 2;}</style></defs><g transform="translate(-685.043 -535.041)"><path class="a" d="M11.92,45.527l.2-3.708a22.09,22.09,0,0,1-5-4.779l-3.933.273L.365,30.627,3.1,28.17a21.944,21.944,0,0,1-.438-4.383A22.269,22.269,0,0,1,2.825,21.1L0,18.644l2.731-6.725,3.305.177A21.976,21.976,0,0,1,9.082,8.287,22.215,22.215,0,0,1,11.1,6.5l-.156-3.312L17.631.365l1.881,2.093A22.226,22.226,0,0,1,27.787,2.1L29.614,0l6.725,2.731L36.208,5.2a22.094,22.094,0,0,1,6.271,5.925l2.592-.181L47.9,17.633,46.041,19.3a22.246,22.246,0,0,1,.1,8.473l2.119,1.843-2.731,6.725-2.867-.154a22.119,22.119,0,0,1-5.576,5.606l.229,3.277-6.685,2.825-2.259-2.515a22.215,22.215,0,0,1-7.263.051l-2.461,2.828Zm1.122-33.283a16.321,16.321,0,1,0,11.541-4.78A16.213,16.213,0,0,0,13.042,12.244Z" transform="translate(685.999 535.997)"/><g transform="translate(699.057 548.041)"><path class="b" d="M11.541,20.794a2.083,2.083,0,0,1-1.205.4,2.639,2.639,0,0,1-1.89-.928,2.994,2.994,0,0,1-2.673-.1A3.394,3.394,0,0,1,.848,17.145V17.1a2.967,2.967,0,0,1,.217-4.354A2.968,2.968,0,0,1,2.62,8.921a3.018,3.018,0,0,1-.077-.672A2.97,2.97,0,0,1,4.314,5.531a3.107,3.107,0,0,1-.076-.675A2.968,2.968,0,0,1,6.878,1.91,2.574,2.574,0,0,1,9.338,0a2.54,2.54,0,0,1,2.2,1.309,2.526,2.526,0,0,1,4.663.6,2.966,2.966,0,0,1,2.639,2.949,3.107,3.107,0,0,1-.076.675,2.963,2.963,0,0,1,1.694,3.387,2.979,2.979,0,0,1,1.556,3.83,2.962,2.962,0,0,1,.214,4.351v.043a3.388,3.388,0,0,1-4.922,3.022,2.966,2.966,0,0,1-2.67.1,2.641,2.641,0,0,1-1.89.928A2.084,2.084,0,0,1,11.541,20.794Z" transform="translate(0 0)"/></g><path class="c" d="M0,0C-.054,1.964,2.122,2.969,4.034,2.969" transform="matrix(0.695, -0.719, 0.719, 0.695, 701.298, 561.574)"/><path class="c" d="M2.821.278C1.441-.6.342.732,0,2.27" transform="translate(718.53 563.115) rotate(-155)"/><path class="c" d="M0,0C-.023.482.9.73,1.718.73" transform="matrix(-0.956, -0.292, 0.292, -0.956, 706.308, 555.344)"/><path class="c" d="M.063,2.291A5.571,5.571,0,0,0,0,0" transform="translate(716.037 554.029) rotate(59)"/><path class="c" d="M0,0C-.023.482.9.73,1.718.73" transform="translate(708.745 561.958) rotate(179)"/><path class="c" d="M0,0A2.554,2.554,0,0,0,2.523,2.742" transform="translate(703.141 568.145) rotate(-90)"/><path class="c" d="M3.6.568A2.494,2.494,0,0,0,0,1.055" transform="translate(716.585 569.039) rotate(-115)"/><line class="c" y2="17.721" transform="translate(710.715 551.389)"/></g></svg>