<svg xmlns="http://www.w3.org/2000/svg" viewBox="0 0 37.768 38.662"><defs><style>.a{fill:#fc6234;}.b{fill:#072436;}</style></defs><g transform="translate(-5894 143)"><path class="a" d="M317.919,37.255a14.227,14.227,0,0,0-10.667-4.445H298.24a14.249,14.249,0,0,1,9.443,3.967,12.709,12.709,0,0,1,3.96,7.784,49.66,49.66,0,0,1,.09,10.8,13.444,13.444,0,0,1-4.049,8.152A14.445,14.445,0,0,1,297.307,67.5H294.85v3.95h12.4a14.245,14.245,0,0,0,10.666-4.431,15.725,15.725,0,0,0,4.292-11.41V48.651A15.73,15.73,0,0,0,317.919,37.255Z" transform="translate(5609.557 -175.784)"/><path class="b" d="M66.24,36.173A14.426,14.426,0,0,0,55.863,32.18H43V70.842H53.407V66.892h2.456A14.451,14.451,0,0,0,66.24,62.91a13.435,13.435,0,0,0,4.049-8.152,49.662,49.662,0,0,0-.09-10.8A12.7,12.7,0,0,0,66.24,36.173Z" transform="translate(5851 -175.18)"/></g></svg>