<svg xmlns="http://www.w3.org/2000/svg" viewBox="0 0 178.495 222.5"><defs><style>.a{fill:#fff;}.b{fill:#fc6234;}</style></defs><g transform="translate(-33.29 -17.68)"><path class="a" d="M50.573,846.527A11.393,11.393,0,0,0,44.756,845a11.131,11.131,0,0,0-6.534,2,10.838,10.838,0,0,0-1.9,1.7v-3.571H33.29v31.554h3.029V865.093a10.989,10.989,0,0,0,1.926,1.7,11.172,11.172,0,0,0,6.511,1.993,11.424,11.424,0,0,0,5.819-1.534A11.1,11.1,0,0,0,54.727,863a13.147,13.147,0,0,0,0-12.19A11.037,11.037,0,0,0,50.573,846.527Zm-5.817,1.451a8.425,8.425,0,0,1,4.313,1.13,7.878,7.878,0,0,1,3.015,3.146,10.342,10.342,0,0,1,0,9.312,7.76,7.76,0,0,1-3,3.121,9,9,0,0,1-8.643,0,7.736,7.736,0,0,1-3-3.121,10.347,10.347,0,0,1,0-9.314,7.868,7.868,0,0,1,3.012-3.144A8.439,8.439,0,0,1,44.756,847.978Z" transform="translate(0 -636.489)"/><path class="a" d="M159.778,846.551a12.01,12.01,0,0,0-11.717,0,10.913,10.913,0,0,0-4.129,4.26,12.53,12.53,0,0,0-1.476,6.08,12.658,12.658,0,0,0,1.474,6.1,10.864,10.864,0,0,0,4.131,4.286,11.955,11.955,0,0,0,11.717,0,10.84,10.84,0,0,0,4.126-4.286,12.633,12.633,0,0,0,1.476-6.1,12.5,12.5,0,0,0-1.479-6.08A10.9,10.9,0,0,0,159.778,846.551ZM153.919,848a8.569,8.569,0,0,1,4.322,1.114,7.709,7.709,0,0,1,3,3.118,10.38,10.38,0,0,1,0,9.316,7.861,7.861,0,0,1-3.012,3.142,8.856,8.856,0,0,1-8.631,0,7.873,7.873,0,0,1-3.015-3.144,10.368,10.368,0,0,1,0-9.314,7.729,7.729,0,0,1,3-3.118A8.564,8.564,0,0,1,153.919,848Z" transform="translate(-83.985 -636.513)"/><path class="a" d="M260.687,856.487h0a35.294,35.294,0,0,0-4.152-1.026,28.268,28.268,0,0,1-3.573-.833,4.524,4.524,0,0,1-1.905-1.153,2.579,2.579,0,0,1-.634-1.891,3,3,0,0,1,1.246-2.537,7.133,7.133,0,0,1,4.341-1.07,11.016,11.016,0,0,1,3.269.5,7.86,7.86,0,0,1,2.611,1.335l.888.711,1.8-2.41-.81-.669a10.178,10.178,0,0,0-3.513-1.792A14.377,14.377,0,0,0,256,845a9.719,9.719,0,0,0-6.338,1.846,5.941,5.941,0,0,0-2.307,4.747A5.582,5.582,0,0,0,248.7,855.5a7.2,7.2,0,0,0,3.061,1.947,31.275,31.275,0,0,0,4.2,1.008,33.037,33.037,0,0,1,3.566.853,4.528,4.528,0,0,1,1.829,1.093,2.364,2.364,0,0,1,.607,1.76,2.966,2.966,0,0,1-1.28,2.6,8.247,8.247,0,0,1-4.719,1.047,11.413,11.413,0,0,1-4.131-.74,8.77,8.77,0,0,1-2.955-1.769l-.906-.86-1.806,2.41.653.681a10.3,10.3,0,0,0,3.921,2.373,15.139,15.139,0,0,0,5.2.893,10.853,10.853,0,0,0,6.562-1.728,5.838,5.838,0,0,0,2.466-4.906,5.312,5.312,0,0,0-1.333-3.79A7.173,7.173,0,0,0,260.687,856.487Z" transform="translate(-163.778 -636.494)"/><path class="a" d="M342.17,849.633a3.905,3.905,0,0,1-2.8,1.022,3.172,3.172,0,0,1-2.457-.849,3.943,3.943,0,0,1-.812-2.715V832.959h7.224v-3H336.1v-4.65h-3.033v4.662H328.94v3h4.131v14.338a6.431,6.431,0,0,0,1.638,4.574,6.1,6.1,0,0,0,4.613,1.771,8.161,8.161,0,0,0,2.689-.461,5.566,5.566,0,0,0,2.281-1.421l.731-.78-2.076-2.076Z" transform="translate(-227.457 -621.345)"/><path class="a" d="M420.179,818.117a10.912,10.912,0,0,0-1.919-1.7,11.175,11.175,0,0,0-6.523-2,11.375,11.375,0,0,0-5.817,1.534,11.086,11.086,0,0,0-4.152,4.256,12.39,12.39,0,0,0-1.5,6.085,12.539,12.539,0,0,0,1.5,6.106,11.027,11.027,0,0,0,4.152,4.279,11.4,11.4,0,0,0,5.819,1.532,11.154,11.154,0,0,0,6.534-2,10.847,10.847,0,0,0,1.9-1.693v3.564H423.2V805.26h-3.019Zm-8.442-.708a8.565,8.565,0,0,1,4.323,1.114,7.71,7.71,0,0,1,3,3.118,10.38,10.38,0,0,1,0,9.316,7.867,7.867,0,0,1-3.01,3.141,8.855,8.855,0,0,1-8.631,0,7.86,7.86,0,0,1-3.017-3.144,10.368,10.368,0,0,1,0-9.314,7.73,7.73,0,0,1,3-3.118,8.569,8.569,0,0,1,4.339-1.114Z" transform="translate(-282.33 -605.92)"/><path class="a" d="M532.386,845a13.744,13.744,0,0,0-4.98.923,12,12,0,0,0-4.087,2.572l-.8.78,2.125,2.117.777-.731a9.78,9.78,0,0,1,3.1-1.945,10.394,10.394,0,0,1,3.9-.729,5.864,5.864,0,0,1,4.281,1.384,5.789,5.789,0,0,1,1.384,4.256v1.25h-6.986c-2.978,0-5.111.611-6.53,1.868a6.814,6.814,0,0,0,.24,10.179,9.642,9.642,0,0,0,6.249,1.88,10.8,10.8,0,0,0,5.58-1.384,9.244,9.244,0,0,0,1.453-1.066v2.311h3.026V853.571a8.513,8.513,0,0,0-2.293-6.341A8.813,8.813,0,0,0,532.386,845Zm-1.322,12.852H538.1v3.386a6.98,6.98,0,0,1-7.033,4.567,6.83,6.83,0,0,1-4.272-1.167,3.523,3.523,0,0,1-1.356-2.976,3.282,3.282,0,0,1,1.223-2.733,7.049,7.049,0,0,1,4.405-1.079Z" transform="translate(-376.302 -636.494)"/><path class="a" d="M630.847,849.633a3.9,3.9,0,0,1-2.8,1.022,3.175,3.175,0,0,1-2.456-.849,3.924,3.924,0,0,1-.817-2.715V832.959H632v-3h-7.233v-4.65h-3.028v4.662H617.61v3h4.129v14.338a6.442,6.442,0,0,0,1.638,4.574,6.1,6.1,0,0,0,4.613,1.771,8.149,8.149,0,0,0,2.69-.461,5.535,5.535,0,0,0,2.29-1.428l.731-.78-2.076-2.076Z" transform="translate(-449.543 -621.345)"/><path class="a" d="M704.546,845a13.744,13.744,0,0,0-4.98.923,11.993,11.993,0,0,0-4.085,2.572l-.8.78,2.124,2.117.777-.731a9.8,9.8,0,0,1,3.1-1.945,10.4,10.4,0,0,1,3.9-.733,5.862,5.862,0,0,1,4.281,1.384,5.79,5.79,0,0,1,1.384,4.256v1.25h-6.987c-2.976,0-5.111.611-6.53,1.868a6.812,6.812,0,0,0,.242,10.179,9.638,9.638,0,0,0,6.246,1.88,10.8,10.8,0,0,0,5.579-1.384,9.141,9.141,0,0,0,1.453-1.066v2.316h3.028V853.571a8.521,8.521,0,0,0-2.293-6.341A8.815,8.815,0,0,0,704.546,845Zm-1.322,12.852h7.033v3.386a6.977,6.977,0,0,1-7.033,4.567,6.818,6.818,0,0,1-4.27-1.167,3.525,3.525,0,0,1-1.359-2.976,3.289,3.289,0,0,1,1.222-2.733,7.054,7.054,0,0,1,4.406-1.079Z" transform="translate(-508.752 -636.494)"/><path class="b" d="M342.468,38.342q-19.456-20.15-48.362-20.152H260.6c16.884.85,23.8,6.847,35.456,17.991,9.657,9.226,16.669,21.892,17.957,35.29,1.559,16.245,2.408,32.728.408,48.975A60.979,60.979,0,0,1,296.055,157.4q-18.932,18.049-47.049,18.049H237.87v17.908h56.236q28.906,0,48.362-20.092t19.458-51.734V90.016Q361.926,58.5,342.468,38.342Z" transform="translate(-150.141 -0.392)"/><path class="a" d="M138.663,35.786q-18.932-18.1-47.054-18.106H33.29v175.3H80.478V168.925H91.614c18.746,0,36.337-4.017,48.96-16.051,10.329-9.851,14.717-18.686,16.458-32.823,2-16.247,1.153-32.73-.408-48.975C155.332,57.678,148.32,45.024,138.663,35.786Z" transform="translate(0 0)"/></g></svg>