<svg xmlns="http://www.w3.org/2000/svg" viewBox="0 0 51.198 63.82"><defs><style>.a{fill:#fff;}</style></defs><g transform="translate(-33.29 -17.68)"><path class="a" d="M38.247,845.434a3.268,3.268,0,0,0-1.669-.439,3.193,3.193,0,0,0-1.874.572,3.107,3.107,0,0,0-.546.486v-1.024H33.29v9.051h.869v-3.321a3.142,3.142,0,0,0,.552.488,3.2,3.2,0,0,0,1.868.572,3.278,3.278,0,0,0,1.669-.44,3.184,3.184,0,0,0,1.191-1.221,3.771,3.771,0,0,0,0-3.5A3.165,3.165,0,0,0,38.247,845.434Zm-1.669.416a2.418,2.418,0,0,1,1.237.324,2.26,2.26,0,0,1,.865.9,2.967,2.967,0,0,1,0,2.671,2.226,2.226,0,0,1-.86.9,2.582,2.582,0,0,1-2.479,0,2.219,2.219,0,0,1-.86-.9,2.968,2.968,0,0,1,0-2.672,2.257,2.257,0,0,1,.864-.9A2.422,2.422,0,0,1,36.579,845.85Z" transform="translate(0 -772.579)"/><path class="a" d="M147.424,845.463a3.445,3.445,0,0,0-3.361,0,3.131,3.131,0,0,0-1.184,1.222,3.817,3.817,0,0,0,0,3.493,3.114,3.114,0,0,0,1.185,1.229,3.428,3.428,0,0,0,3.361,0,3.108,3.108,0,0,0,1.184-1.229,3.624,3.624,0,0,0,.423-1.749,3.587,3.587,0,0,0-.424-1.744A3.128,3.128,0,0,0,147.424,845.463Zm-1.68.416a2.456,2.456,0,0,1,1.24.32,2.21,2.21,0,0,1,.86.895,2.977,2.977,0,0,1,0,2.672,2.255,2.255,0,0,1-.864.9,2.54,2.54,0,0,1-2.476,0,2.258,2.258,0,0,1-.865-.9,2.974,2.974,0,0,1,0-2.672,2.217,2.217,0,0,1,.86-.895A2.458,2.458,0,0,1,145.743,845.879Z" transform="translate(-101.942 -772.608)"/><path class="a" d="M250.334,848.3h0a10.109,10.109,0,0,0-1.191-.295,8.122,8.122,0,0,1-1.025-.239,1.3,1.3,0,0,1-.546-.331.74.74,0,0,1-.182-.543.859.859,0,0,1,.357-.728,2.045,2.045,0,0,1,1.245-.307,3.158,3.158,0,0,1,.938.142,2.255,2.255,0,0,1,.749.383l.255.2.517-.692-.232-.192a2.921,2.921,0,0,0-1.008-.514A4.124,4.124,0,0,0,248.99,845a2.788,2.788,0,0,0-1.818.529,1.7,1.7,0,0,0-.662,1.362,1.6,1.6,0,0,0,.386,1.121,2.067,2.067,0,0,0,.878.558,8.951,8.951,0,0,0,1.206.289A9.494,9.494,0,0,1,250,849.1a1.3,1.3,0,0,1,.525.314.678.678,0,0,1,.174.5.851.851,0,0,1-.367.746,2.365,2.365,0,0,1-1.354.3,3.274,3.274,0,0,1-1.185-.212,2.514,2.514,0,0,1-.848-.507l-.26-.247-.518.691.187.2a2.955,2.955,0,0,0,1.125.681,4.345,4.345,0,0,0,1.493.256,3.113,3.113,0,0,0,1.882-.5,1.675,1.675,0,0,0,.707-1.407,1.524,1.524,0,0,0-.382-1.087A2.057,2.057,0,0,0,250.334,848.3Z" transform="translate(-198.796 -772.585)"/><path class="a" d="M332.735,832.287a1.12,1.12,0,0,1-.8.293.91.91,0,0,1-.7-.243,1.131,1.131,0,0,1-.233-.779V827.5h2.072v-.86h-2.072V825.31h-.87v1.337H328.94v.86h1.185v4.113a1.845,1.845,0,0,0,.47,1.312,1.749,1.749,0,0,0,1.323.508,2.344,2.344,0,0,0,.771-.132,1.6,1.6,0,0,0,.654-.407l.21-.224-.6-.6Z" transform="translate(-276.09 -754.198)"/><path class="a" d="M405.977,808.948a3.13,3.13,0,0,0-.55-.486,3.206,3.206,0,0,0-1.871-.572,3.263,3.263,0,0,0-1.668.44,3.179,3.179,0,0,0-1.191,1.221,3.554,3.554,0,0,0-.431,1.745,3.6,3.6,0,0,0,.43,1.751,3.163,3.163,0,0,0,1.191,1.227,3.271,3.271,0,0,0,1.669.439,3.2,3.2,0,0,0,1.874-.572,3.108,3.108,0,0,0,.544-.486v1.022h.869V805.26h-.866Zm-2.421-.2a2.456,2.456,0,0,1,1.24.32,2.212,2.212,0,0,1,.86.894,2.977,2.977,0,0,1,0,2.672,2.256,2.256,0,0,1-.863.9,2.54,2.54,0,0,1-2.476,0,2.255,2.255,0,0,1-.865-.9,2.974,2.974,0,0,1,0-2.672,2.217,2.217,0,0,1,.86-.894A2.457,2.457,0,0,1,403.556,808.745Z" transform="translate(-342.696 -735.474)"/><path class="a" d="M525.271,845a3.943,3.943,0,0,0-1.428.265,3.445,3.445,0,0,0-1.172.738l-.229.224.609.607.223-.21a2.805,2.805,0,0,1,.89-.558,2.986,2.986,0,0,1,1.12-.209,1.683,1.683,0,0,1,1.228.4,1.66,1.66,0,0,1,.4,1.221v.358h-2a2.74,2.74,0,0,0-1.873.536,1.955,1.955,0,0,0,.069,2.92,2.765,2.765,0,0,0,1.792.539,3.1,3.1,0,0,0,1.6-.4,2.661,2.661,0,0,0,.417-.306v.663h.868v-4.329a2.442,2.442,0,0,0-.658-1.819A2.527,2.527,0,0,0,525.271,845Zm-.379,3.686h2.017v.971a2,2,0,0,1-2.017,1.31,1.96,1.96,0,0,1-1.225-.335,1.011,1.011,0,0,1-.389-.854.941.941,0,0,1,.351-.784,2.022,2.022,0,0,1,1.264-.31Z" transform="translate(-456.76 -772.585)"/><path class="a" d="M621.407,832.287a1.12,1.12,0,0,1-.8.293.911.911,0,0,1-.7-.243,1.125,1.125,0,0,1-.234-.779V827.5h2.072v-.86h-2.075V825.31h-.869v1.337H617.61v.86h1.184v4.113a1.848,1.848,0,0,0,.47,1.312,1.749,1.749,0,0,0,1.323.508,2.338,2.338,0,0,0,.771-.132,1.589,1.589,0,0,0,.657-.41l.21-.223-.6-.6Z" transform="translate(-545.662 -754.198)"/><path class="a" d="M697.431,845a3.942,3.942,0,0,0-1.428.265,3.441,3.441,0,0,0-1.172.738l-.23.224.609.607.223-.21a2.809,2.809,0,0,1,.89-.558,2.985,2.985,0,0,1,1.119-.21,1.682,1.682,0,0,1,1.228.4,1.661,1.661,0,0,1,.4,1.221v.359h-2a2.742,2.742,0,0,0-1.873.536,1.954,1.954,0,0,0,.069,2.92,2.766,2.766,0,0,0,1.792.539,3.1,3.1,0,0,0,1.6-.4,2.632,2.632,0,0,0,.417-.306v.664h.869v-4.329a2.444,2.444,0,0,0-.658-1.819A2.528,2.528,0,0,0,697.431,845Zm-.379,3.686h2.017v.971a2,2,0,0,1-2.017,1.31,1.956,1.956,0,0,1-1.225-.335,1.011,1.011,0,0,1-.39-.854.943.943,0,0,1,.351-.784,2.024,2.024,0,0,1,1.264-.31Z" transform="translate(-617.53 -772.585)"/><path class="a" d="M267.106,24.113c-3.72-3.853-11.651-5.923-16.382-5.923h-4.643c3.826,1.045,5.837,2.161,9.182,5.357a15.213,15.213,0,0,1,4.447,9.926,64.634,64.634,0,0,1,.117,14.048,17.49,17.49,0,0,1-5.268,10.6,18.8,18.8,0,0,1-13.5,5.177H237.87v5.137H254a18.527,18.527,0,0,0,13.872-5.763q5.581-5.763,5.581-14.839V38.792C273.453,32.765,270.826,27.967,267.106,24.113Z" transform="translate(-188.965 -0.476)"/><path class="a" d="M63.514,22.874a18.769,18.769,0,0,0-13.5-5.194H33.29V67.961H46.825v-6.9h3.194c5.377,0,10.423-1.152,14.043-4.6a13.947,13.947,0,0,0,4.721-9.415A64.593,64.593,0,0,0,68.666,33,16.548,16.548,0,0,0,63.514,22.874Z" transform="translate(0 0)"/></g></svg>