<svg id="Capa_1" data-name="Capa 1" xmlns="http://www.w3.org/2000/svg" viewBox="0 0 1000 1000"><defs><style>.cls-1{fill:#fc6234;}.cls-2{fill:#072436;}.cls-3{fill:#fff;}</style></defs><title>Mesa de trabajo 2</title><path class="cls-1" d="M853.14,140.37Q749.3,32.82,595,32.81H376.89q135.18,6.81,228.53,96c51.55,49.3,89,116.84,95.84,188.37,8.33,86.71,12.86,174.68,2.18,261.4-9.29,75.46-42.88,144.69-98,197.27q-101,96.36-251.13,96.35H294.85v95.58H595q154.28,0,258.12-107.24T957,584.42V416.17Q957,247.94,853.14,140.37Z"/><path class="cls-2" d="M605.42,128.82q-101-96.63-251.13-96.64H43V967.82H294.85V872.21h59.44q150.09,0,251.13-96.35c55.14-52.58,88.73-121.81,98-197.27,10.68-86.72,6.15-174.69-2.18-261.4C694.39,245.66,657,178.12,605.42,128.82Z"/><path class="cls-3" d="M175.1,453.78a54.18,54.18,0,0,0-27.66-7.29A52.91,52.91,0,0,0,116.37,456a50.71,50.71,0,0,0-9,8V447.07H92.94v150h14.4v-55a51.75,51.75,0,0,0,9.15,8.07,53.09,53.09,0,0,0,31,9.48,54.24,54.24,0,0,0,27.66-7.29,52.64,52.64,0,0,0,19.71-20.23,62.54,62.54,0,0,0,0-58A52.46,52.46,0,0,0,175.1,453.78Zm-27.66,6.9A40.12,40.12,0,0,1,168,466.05a37.48,37.48,0,0,1,14.33,15,49.2,49.2,0,0,1,0,44.27A36.8,36.8,0,0,1,168,540.11c-12.19,7-28.92,7-41.09,0a36.63,36.63,0,0,1-14.3-14.83,49.23,49.23,0,0,1,0-44.28,37.37,37.37,0,0,1,14.32-14.95A40.18,40.18,0,0,1,147.44,460.68Z"/><path class="cls-3" d="M295,453.78c-16.58-9.67-39.15-9.67-55.7,0A51.9,51.9,0,0,0,219.67,474a59.54,59.54,0,0,0-7,28.9,60.17,60.17,0,0,0,7,29,51.64,51.64,0,0,0,19.64,20.38,56.84,56.84,0,0,0,55.7,0,51.62,51.62,0,0,0,19.63-20.38,60.17,60.17,0,0,0,7-29,59.54,59.54,0,0,0-7-28.9A51.87,51.87,0,0,0,295,453.78Zm-27.85,6.9A40.62,40.62,0,0,1,287.7,466,36.7,36.7,0,0,1,302,480.8a49.33,49.33,0,0,1,0,44.29A37.4,37.4,0,0,1,287.67,540c-12.2,7.12-28.89,7.12-41,0a37.41,37.41,0,0,1-14.34-14.95,49.29,49.29,0,0,1,0-44.27A36.76,36.76,0,0,1,246.6,466,40.59,40.59,0,0,1,267.15,460.68Z"/><path class="cls-3" d="M395.4,501.11h0a168.42,168.42,0,0,0-19.77-4.88,134.25,134.25,0,0,1-17-4,21.53,21.53,0,0,1-9.05-5.46c-2-2.07-3-5-3-9a14.26,14.26,0,0,1,5.92-12.05c4.35-3.38,11.29-5.09,20.63-5.09A52.33,52.33,0,0,1,388.65,463a37.39,37.39,0,0,1,12.4,6.34l4.22,3.38,8.58-11.45L410,458.1a48.51,48.51,0,0,0-16.71-8.53,68.38,68.38,0,0,0-20.19-3.08c-13,0-23.11,2.95-30.13,8.76-7.31,6.06-11,13.64-11,22.57,0,7.75,2.15,14,6.4,18.58a34.27,34.27,0,0,0,14.55,9.25,147.26,147.26,0,0,0,20,4.79,155.21,155.21,0,0,1,16.95,4.06,21.54,21.54,0,0,1,8.7,5.19c1.94,1.95,2.88,4.69,2.88,8.38,0,5.41-1.93,9.33-6.09,12.35-4.55,3.3-12.09,5-22.43,5a54.34,54.34,0,0,1-19.6-3.47c-5.93-2.3-10.66-5.12-14.05-8.4L335,529.4l-8.58,11.46,3.09,3.21c4.46,4.61,10.74,8.41,18.67,11.29a72.17,72.17,0,0,0,24.74,4.24c13.4,0,23.89-2.76,31.2-8.21a27.77,27.77,0,0,0,11.72-23.32c0-7.51-2.13-13.57-6.34-18A34.13,34.13,0,0,0,395.4,501.11Z"/><path class="cls-3" d="M480,540.54c-3.49,3.26-7.84,4.86-13.3,4.86s-9.15-1.32-11.68-4-3.89-7.12-3.89-12.91V461.28h34.34V447.07H451.17V424.91H436.78v22.16H417.14v14.21h19.64v68.16c0,8.93,2.61,16.24,7.79,21.74s12.66,8.42,22,8.42a38.88,38.88,0,0,0,12.78-2.15,26.46,26.46,0,0,0,10.85-6.76l3.48-3.7-9.92-9.92Z"/><path class="cls-3" d="M590,464A51.57,51.57,0,0,0,580.9,456a53.12,53.12,0,0,0-31-9.48,54.15,54.15,0,0,0-27.66,7.29A52.64,52.64,0,0,0,502.58,474a58.84,58.84,0,0,0-7.14,28.92,59.52,59.52,0,0,0,7.13,29,52.28,52.28,0,0,0,19.71,20.35,54.16,54.16,0,0,0,27.66,7.29A52.93,52.93,0,0,0,581,550.11a51.15,51.15,0,0,0,9-8V559h14.4V402.92H590Zm-40.09-3.36a40.62,40.62,0,0,1,20.55,5.3,36.7,36.7,0,0,1,14.29,14.82,49.33,49.33,0,0,1,0,44.29A37.4,37.4,0,0,1,570.46,540c-12.2,7.12-28.89,7.12-41,0a37.41,37.41,0,0,1-14.34-14.95,49.29,49.29,0,0,1,0-44.27A36.76,36.76,0,0,1,529.39,466,40.59,40.59,0,0,1,549.94,460.68Z"/><path class="cls-3" d="M676.72,446.49a65.22,65.22,0,0,0-23.67,4.38,56.87,56.87,0,0,0-19.43,12.22l-3.8,3.71,10.1,10.07,3.69-3.48a46.73,46.73,0,0,1,14.76-9.25,49.41,49.41,0,0,1,18.55-3.46c9.11,0,16,2.2,20.36,6.54s6.59,11.13,6.59,20.22v5.95H670.64c-14.15,0-24.31,2.91-31,8.88s-10.3,14-10.3,23.64c0,10.25,3.84,18.57,11.44,24.76,7.27,5.93,17.27,8.93,29.7,8.93,10.2,0,19.12-2.23,26.53-6.62a45,45,0,0,0,6.9-5.06V559h14.4V487.25c0-12.93-3.67-23.07-10.9-30.14S689.86,446.49,676.72,446.49Zm-6.28,61.1h33.43v16.1c-6.2,14.6-17.14,21.71-33.43,21.71-8.81,0-15.64-1.87-20.3-5.55-4.35-3.43-6.45-8.05-6.45-14.14,0-5.59,1.9-9.83,5.8-13C653.69,509.3,660.74,507.59,670.44,507.59Z"/><path class="cls-3" d="M796.58,540.54c-3.48,3.26-7.84,4.86-13.3,4.86s-9.15-1.32-11.68-4-3.88-7.12-3.88-12.91V461.28h34.33V447.07H767.72V424.91h-14.4v22.16H733.69v14.21h19.63v68.16c0,8.93,2.62,16.24,7.79,21.74s12.66,8.42,22,8.42a38.93,38.93,0,0,0,12.78-2.15,26.52,26.52,0,0,0,10.85-6.76l3.47-3.7-9.92-9.92Z"/><path class="cls-3" d="M865.51,446.49a65.22,65.22,0,0,0-23.67,4.38,56.87,56.87,0,0,0-19.43,12.22l-3.8,3.71,10.1,10.07,3.69-3.48a46.73,46.73,0,0,1,14.76-9.25,49.41,49.41,0,0,1,18.55-3.46c9.11,0,16,2.2,20.35,6.54s6.6,11.13,6.6,20.22v5.95H859.43c-14.15,0-24.31,2.91-31,8.88s-10.29,14-10.29,23.64c0,10.25,3.84,18.57,11.44,24.76,7.27,5.93,17.27,8.93,29.7,8.93,10.2,0,19.11-2.23,26.53-6.62a45,45,0,0,0,6.9-5.06V559h14.4V487.25c0-12.93-3.67-23.07-10.9-30.14S878.65,446.49,865.51,446.49Zm-6.28,61.1h33.43v16.1c-6.2,14.6-17.14,21.71-33.43,21.71-8.81,0-15.64-1.87-20.3-5.55-4.35-3.43-6.46-8.05-6.46-14.14,0-5.59,1.91-9.83,5.81-13C842.47,509.3,849.53,507.59,859.23,507.59Z"/></svg>