<svg id="Capa_1" data-name="Capa 1" xmlns="http://www.w3.org/2000/svg" viewBox="0 0 809 1000"><defs><style>.cls-1{fill:#fff;}.cls-2{fill:#fc6234;}</style></defs><title>Mesa de trabajo 1</title>
<path class="cls-1" d="M108.22,851.64A49.39,49.39,0,0,0,83,845a48.26,48.26,0,0,0-28.33,8.65A47,47,0,0,0,46.42,861V845.52H33.29v136.8H46.42V932.13a47.65,47.65,0,0,0,8.35,7.37A48.43,48.43,0,0,0,83,948.14a49.52,49.52,0,0,0,25.23-6.65,48.13,48.13,0,0,0,18-18.45,57,57,0,0,0,0-52.85A47.85,47.85,0,0,0,108.22,851.64ZM83,857.93a36.53,36.53,0,0,1,18.7,4.9,34.14,34.14,0,0,1,13.07,13.64,44.84,44.84,0,0,1,0,40.37,33.64,33.64,0,0,1-13,13.53c-11.12,6.39-26.37,6.39-37.47,0a33.54,33.54,0,0,1-13-13.53,44.86,44.86,0,0,1,0-40.38,34.1,34.1,0,0,1,13.06-13.63A36.59,36.59,0,0,1,83,857.93Z"/>
<path class="cls-1" d="M217.56,851.64c-15.13-8.82-35.71-8.82-50.8,0a47.31,47.31,0,0,0-17.9,18.47,54.32,54.32,0,0,0-6.4,26.36,54.88,54.88,0,0,0,6.39,26.44,47.1,47.1,0,0,0,17.91,18.58,51.83,51.83,0,0,0,50.8,0,47,47,0,0,0,17.89-18.58,54.77,54.77,0,0,0,6.4-26.44,54.21,54.21,0,0,0-6.41-26.36A47.27,47.27,0,0,0,217.56,851.64Zm-25.4,6.29a37.15,37.15,0,0,1,18.74,4.83,33.42,33.42,0,0,1,13,13.52,45,45,0,0,1,0,40.39,34.07,34.07,0,0,1-13.06,13.62c-11.12,6.49-26.35,6.49-37.42,0a34.12,34.12,0,0,1-13.07-13.63,44.95,44.95,0,0,1,0-40.38,33.51,33.51,0,0,1,13-13.52A37.13,37.13,0,0,1,192.16,857.93Z"/>
<path class="cls-1" d="M309.11,894.8h0a153,153,0,0,0-18-4.45,122.74,122.74,0,0,1-15.49-3.61,19.62,19.62,0,0,1-8.26-5c-1.84-1.89-2.75-4.56-2.75-8.2a13,13,0,0,1,5.4-11c4-3.08,10.3-4.64,18.82-4.64A47.76,47.76,0,0,1,303,860.05a34.06,34.06,0,0,1,11.32,5.79l3.85,3.08,7.82-10.45-3.51-2.9a44.12,44.12,0,0,0-15.23-7.77A62.33,62.33,0,0,0,288.79,845c-11.83,0-21.08,2.69-27.48,8-6.67,5.52-10,12.44-10,20.58,0,7.07,2,12.77,5.83,16.94a31.22,31.22,0,0,0,13.27,8.44,135.63,135.63,0,0,0,18.23,4.37,143.26,143.26,0,0,1,15.46,3.7,19.63,19.63,0,0,1,7.93,4.74c1.77,1.77,2.63,4.27,2.63,7.63,0,4.94-1.76,8.52-5.55,11.27-4.15,3-11,4.54-20.46,4.54A49.47,49.47,0,0,1,270.74,932a38,38,0,0,1-12.81-7.67L254,920.6l-7.83,10.45L249,934c4.07,4.2,9.79,7.66,17,10.29a65.65,65.65,0,0,0,22.56,3.87c12.22,0,21.79-2.52,28.45-7.49a25.31,25.31,0,0,0,10.69-21.27c0-6.84-1.94-12.37-5.78-16.43A31.1,31.1,0,0,0,309.11,894.8Z"/><path class="cls-1" d="M386.3,930.76a16.93,16.93,0,0,1-12.13,4.43c-4.87,0-8.35-1.2-10.65-3.68S360,925,360,919.74V858.47h31.32v-13H360V825.31H346.85v20.21H328.94v13h17.91v62.16c0,8.14,2.38,14.81,7.1,19.83s11.54,7.68,20,7.68a35.38,35.38,0,0,0,11.66-2,24.14,24.14,0,0,0,9.89-6.16l3.17-3.38-9-9Z"/><path class="cls-1" d="M486.6,861a47.29,47.29,0,0,0-8.32-7.35A48.45,48.45,0,0,0,450,845a49.32,49.32,0,0,0-25.22,6.65,48.06,48.06,0,0,0-18,18.45,53.72,53.72,0,0,0-6.51,26.38,54.37,54.37,0,0,0,6.5,26.47,47.8,47.8,0,0,0,18,18.55A49.43,49.43,0,0,0,450,948.14a48.35,48.35,0,0,0,28.33-8.65,47,47,0,0,0,8.23-7.34V947.6h13.13V805.26H486.6ZM450,857.93a37.13,37.13,0,0,1,18.74,4.83,33.42,33.42,0,0,1,13,13.52,45,45,0,0,1,0,40.39,34.11,34.11,0,0,1-13.05,13.62c-11.13,6.49-26.36,6.49-37.42,0a34.08,34.08,0,0,1-13.08-13.63,44.95,44.95,0,0,1,0-40.38,33.51,33.51,0,0,1,13-13.52A37.15,37.15,0,0,1,450,857.93Z"/>
<path class="cls-1" d="M565.66,845a59.58,59.58,0,0,0-21.59,4,52.05,52.05,0,0,0-17.72,11.15l-3.46,3.38,9.21,9.18,3.37-3.17a42.4,42.4,0,0,1,13.45-8.43,45.07,45.07,0,0,1,16.92-3.16c8.3,0,14.55,2,18.56,6s6,10.16,6,18.45v5.42H560.11c-12.91,0-22.16,2.65-28.31,8.1s-9.39,12.76-9.39,21.56c0,9.34,3.51,16.93,10.43,22.57,6.63,5.41,15.75,8.15,27.09,8.15,9.3,0,17.43-2,24.19-6a40.05,40.05,0,0,0,6.3-4.62V947.6h13.12V882.16c0-11.79-3.34-21-9.94-27.49S577.64,845,565.66,845Zm-5.73,55.72h30.49v14.68c-5.66,13.32-15.63,19.8-30.49,19.8-8,0-14.26-1.71-18.52-5.06-4-3.13-5.88-7.34-5.88-12.9,0-5.09,1.73-9,5.3-11.85C544.65,902.27,551.08,900.71,559.93,900.71Z"/>
<path class="cls-1" d="M675,930.76a16.93,16.93,0,0,1-12.13,4.43c-4.87,0-8.34-1.2-10.65-3.68s-3.54-6.49-3.54-11.77V858.47H680v-13H648.64V825.31H635.51v20.21h-17.9v13h17.9v62.16c0,8.14,2.39,14.81,7.1,19.83s11.55,7.68,20,7.68a35.34,35.34,0,0,0,11.66-2A24,24,0,0,0,684.2,940l3.17-3.38-9-9Z"/>
<path class="cls-1" d="M737.82,845a59.58,59.58,0,0,0-21.59,4,52,52,0,0,0-17.71,11.15l-3.47,3.38,9.21,9.18,3.37-3.17a42.51,42.51,0,0,1,13.45-8.43A45.07,45.07,0,0,1,738,857.93c8.31,0,14.55,2,18.56,6s6,10.16,6,18.45v5.42H732.27c-12.9,0-22.16,2.65-28.31,8.1s-9.39,12.76-9.39,21.56c0,9.34,3.51,16.93,10.44,22.57,6.63,5.41,15.75,8.15,27.08,8.15,9.3,0,17.43-2,24.19-6a39.6,39.6,0,0,0,6.3-4.62V947.6h13.13V882.16c0-11.79-3.35-21-9.94-27.49S749.8,845,737.82,845Zm-5.73,55.72h30.49v14.68c-5.65,13.32-15.63,19.8-30.49,19.8-8,0-14.26-1.71-18.51-5.06-4-3.13-5.89-7.34-5.89-12.9,0-5.09,1.74-9,5.3-11.85C716.81,902.27,723.25,900.71,732.09,900.71Z"/>
<path class="cls-2" d="M691.35,105.56Q607,18.2,481.68,18.19H304.5q109.8,5.53,185.63,78c41.87,40,72.27,94.91,77.85,153,6.76,70.43,10.44,141.89,1.77,212.33C562.2,522.81,534.91,579,490.13,621.75Q408.05,700,286.15,700H237.87v77.64H481.68q125.32,0,209.67-87.11t84.36-224.29V329.59Q775.71,192.94,691.35,105.56Z"/>
<path class="cls-1" d="M490.13,96.18q-82.08-78.49-204-78.5H33.29v760H237.87V700h48.28q121.91,0,204-78.26c44.78-42.71,72.07-98.94,79.62-160.23,8.67-70.44,5-141.9-1.77-212.33C562.4,191.09,532,136.23,490.13,96.18Z"/></svg>
