<svg xmlns="http://www.w3.org/2000/svg" viewBox="0 0 147.355 38.662"><defs><style>.a{fill:#fc6234;}.b{fill:#072436;}</style></defs><g transform="translate(-94.549 -47.979)"><path class="a" d="M317.919,37.255a14.227,14.227,0,0,0-10.667-4.445H298.24a14.249,14.249,0,0,1,9.443,3.967,12.709,12.709,0,0,1,3.96,7.784,49.66,49.66,0,0,1,.09,10.8,13.444,13.444,0,0,1-4.049,8.152A14.445,14.445,0,0,1,297.307,67.5H294.85v3.95h12.4a14.245,14.245,0,0,0,10.666-4.431,15.725,15.725,0,0,0,4.292-11.41V48.651A15.73,15.73,0,0,0,317.919,37.255Z" transform="translate(-189.894 15.195)"/><path class="b" d="M66.24,36.173A14.426,14.426,0,0,0,55.863,32.18H43V70.842H53.407V66.892h2.456A14.451,14.451,0,0,0,66.24,62.91a13.435,13.435,0,0,0,4.049-8.152,49.662,49.662,0,0,0-.09-10.8A12.7,12.7,0,0,0,66.24,36.173Z" transform="translate(51.549 15.799)"/><path class="a" d="M102.464,447.33a6.281,6.281,0,0,0-3.206-.845,6.134,6.134,0,0,0-3.6,1.1,5.875,5.875,0,0,0-1.043.927v-1.963H92.94v17.388h1.669v-6.375a6,6,0,0,0,1.061.935,6.154,6.154,0,0,0,3.593,1.1,6.288,6.288,0,0,0,3.206-.845,6.1,6.1,0,0,0,2.285-2.345,7.25,7.25,0,0,0,0-6.723A6.081,6.081,0,0,0,102.464,447.33Zm-3.206.8a4.65,4.65,0,0,1,2.383.622,4.345,4.345,0,0,1,1.661,1.739,5.7,5.7,0,0,1,0,5.132,4.265,4.265,0,0,1-1.661,1.714,4.964,4.964,0,0,1-4.763,0,4.246,4.246,0,0,1-1.658-1.719,5.707,5.707,0,0,1,0-5.133,4.332,4.332,0,0,1,1.66-1.733A4.657,4.657,0,0,1,99.257,448.13Z" transform="translate(54.59 -383.298)"/><path class="a" d="M222.208,447.368a6.618,6.618,0,0,0-6.456,0,6.015,6.015,0,0,0-2.275,2.344,6.9,6.9,0,0,0-.811,3.35,6.975,6.975,0,0,0,.811,3.362,5.986,5.986,0,0,0,2.277,2.362,6.589,6.589,0,0,0,6.456,0,5.984,5.984,0,0,0,2.275-2.362,6.975,6.975,0,0,0,.811-3.362,6.9,6.9,0,0,0-.811-3.35,6.012,6.012,0,0,0-2.277-2.344Zm-3.228.8a4.708,4.708,0,0,1,2.382.617,4.254,4.254,0,0,1,1.658,1.716,5.718,5.718,0,0,1,0,5.134,4.335,4.335,0,0,1-1.661,1.728,4.871,4.871,0,0,1-4.753,0,4.336,4.336,0,0,1-1.662-1.733,5.714,5.714,0,0,1,0-5.132,4.261,4.261,0,0,1,1.654-1.713A4.7,4.7,0,0,1,218.979,448.168Z" transform="translate(-51.256 -383.337)"/><path class="a" d="M334.416,452.821h0a19.515,19.515,0,0,0-2.292-.566,15.56,15.56,0,0,1-1.971-.464,2.5,2.5,0,0,1-1.049-.633,1.43,1.43,0,0,1-.348-1.043,1.653,1.653,0,0,1,.686-1.4,3.919,3.919,0,0,1,2.391-.59,6.066,6.066,0,0,1,1.8.275,4.336,4.336,0,0,1,1.437.735l.489.392.995-1.327-.446-.367a5.622,5.622,0,0,0-1.937-.989,7.924,7.924,0,0,0-2.34-.357,5.358,5.358,0,0,0-3.493,1.015,3.281,3.281,0,0,0-1.275,2.616,3.054,3.054,0,0,0,.742,2.154,3.973,3.973,0,0,0,1.687,1.072,17.068,17.068,0,0,0,2.318.555,17.972,17.972,0,0,1,1.965.471,2.5,2.5,0,0,1,1.008.6,1.307,1.307,0,0,1,.334.971,1.634,1.634,0,0,1-.706,1.432,4.539,4.539,0,0,1-2.6.58,6.3,6.3,0,0,1-2.272-.4,4.846,4.846,0,0,1-1.629-.974l-.5-.481-.995,1.328.358.372a5.658,5.658,0,0,0,2.164,1.309,8.363,8.363,0,0,0,2.868.492,5.983,5.983,0,0,0,3.617-.952,3.219,3.219,0,0,0,1.359-2.7,2.917,2.917,0,0,0-.735-2.086A3.955,3.955,0,0,0,334.416,452.821Z" transform="translate(-151.827 -383.304)"/><path class="a" d="M424.426,438.313a2.151,2.151,0,0,1-1.542.563,1.745,1.745,0,0,1-1.354-.464,2.157,2.157,0,0,1-.451-1.5v-7.791h3.98v-1.647h-3.976V424.91h-1.668v2.569H417.14v1.647h2.277v7.9a3.539,3.539,0,0,0,.9,2.52,3.37,3.37,0,0,0,2.55.976,4.508,4.508,0,0,0,1.481-.249,3.067,3.067,0,0,0,1.258-.784l.4-.429-1.15-1.15Z" transform="translate(-232.031 -364.225)"/><path class="a" d="M506.4,410a5.974,5.974,0,0,0-1.055-.927,6.157,6.157,0,0,0-3.593-1.1,6.277,6.277,0,0,0-3.206.845,6.1,6.1,0,0,0-2.279,2.34,6.821,6.821,0,0,0-.828,3.352,6.9,6.9,0,0,0,.826,3.362,6.06,6.06,0,0,0,2.285,2.359,6.278,6.278,0,0,0,3.206.845,6.136,6.136,0,0,0,3.6-1.1,5.93,5.93,0,0,0,1.043-.927v1.958h1.669V402.92H506.4Zm-4.647-.39a4.709,4.709,0,0,1,2.382.614,4.253,4.253,0,0,1,1.656,1.718,5.718,5.718,0,0,1,0,5.134,4.335,4.335,0,0,1-1.656,1.733,4.871,4.871,0,0,1-4.752,0,4.337,4.337,0,0,1-1.662-1.733,5.714,5.714,0,0,1,0-5.132,4.262,4.262,0,0,1,1.654-1.713,4.705,4.705,0,0,1,2.382-.617Z" transform="translate(-301.25 -344.784)"/><path class="a" d="M634.832,446.49a7.56,7.56,0,0,0-2.744.508,6.593,6.593,0,0,0-2.252,1.417l-.44.43,1.171,1.167.428-.4a5.416,5.416,0,0,1,1.711-1.072,5.725,5.725,0,0,1,2.15-.4,3.249,3.249,0,0,1,2.36.758,3.2,3.2,0,0,1,.764,2.344v.69h-3.852a5.244,5.244,0,0,0-3.593,1.029,3.756,3.756,0,0,0,.132,5.61,5.313,5.313,0,0,0,3.443,1.035,5.949,5.949,0,0,0,3.075-.767,5.213,5.213,0,0,0,.8-.586v1.284h1.669v-8.317a4.684,4.684,0,0,0-1.263-3.494A4.893,4.893,0,0,0,634.832,446.49Zm-.728,7.083h3.875v1.866a3.846,3.846,0,0,1-3.875,2.517,3.745,3.745,0,0,1-2.353-.643,1.952,1.952,0,0,1-.748-1.639,1.819,1.819,0,0,1,.672-1.507A3.9,3.9,0,0,1,634.1,453.572Z" transform="translate(-419.634 -383.304)"/><path class="a" d="M740.98,438.313a2.149,2.149,0,0,1-1.542.563,1.745,1.745,0,0,1-1.354-.464,2.157,2.157,0,0,1-.45-1.5v-7.791h3.979v-1.647h-3.979V424.91h-1.669v2.569H733.69v1.647h2.275v7.9a3.544,3.544,0,0,0,.9,2.52,3.368,3.368,0,0,0,2.55.976,4.514,4.514,0,0,0,1.481-.249,3.074,3.074,0,0,0,1.258-.784l.4-.429-1.15-1.15Z" transform="translate(-511.888 -364.225)"/><path class="a" d="M823.631,446.49a7.561,7.561,0,0,0-2.744.508,6.593,6.593,0,0,0-2.252,1.417l-.44.43,1.171,1.167.428-.4a5.419,5.419,0,0,1,1.711-1.072,5.725,5.725,0,0,1,2.15-.4,3.243,3.243,0,0,1,2.359.758,3.2,3.2,0,0,1,.765,2.344v.69h-3.852a5.245,5.245,0,0,0-3.593,1.029,3.757,3.757,0,0,0,.133,5.61,5.313,5.313,0,0,0,3.443,1.035,5.953,5.953,0,0,0,3.075-.767,5.217,5.217,0,0,0,.8-.586v1.284h1.669v-8.317a4.684,4.684,0,0,0-1.263-3.494A4.9,4.9,0,0,0,823.631,446.49Zm-.728,7.083h3.875v1.866a3.846,3.846,0,0,1-3.875,2.517,3.744,3.744,0,0,1-2.353-.643,1.953,1.953,0,0,1-.749-1.639,1.82,1.82,0,0,1,.674-1.507A3.9,3.9,0,0,1,822.9,453.572Z" transform="translate(-586.549 -383.304)"/></g></svg>